<svg id="visual" viewBox="0 0 900 600" width="900" height="600" xmlns="http://www.w3.org/2000/svg" xmlns:xlink="http://www.w3.org/1999/xlink" version="1.1"><rect x="0" y="0" width="900" height="600" fill="#EEF2FF"></rect><path d="M93 0L97.7 11.2C102.3 22.3 111.7 44.7 113.8 66.8C116 89 111 111 112.8 133.2C114.7 155.3 123.3 177.7 122.3 200C121.3 222.3 110.7 244.7 106.8 266.8C103 289 106 311 111.3 333.2C116.7 355.3 124.3 377.7 122.2 400C120 422.3 108 444.7 103.3 466.8C98.7 489 101.3 511 100.8 533.2C100.3 555.3 96.7 577.7 94.8 588.8L93 600L0 600L0 588.8C0 577.7 0 555.3 0 533.2C0 511 0 489 0 466.8C0 444.7 0 422.3 0 400C0 377.7 0 355.3 0 333.2C0 311 0 289 0 266.8C0 244.7 0 222.3 0 200C0 177.7 0 155.3 0 133.2C0 111 0 89 0 66.8C0 44.7 0 22.3 0 11.2L0 0Z" fill="#eef2ff"></path><path d="M91 0L94.5 11.2C98 22.3 105 44.7 108.5 66.8C112 89 112 111 107.2 133.2C102.3 155.3 92.7 177.7 86.7 200C80.7 222.3 78.3 244.7 78.5 266.8C78.7 289 81.3 311 86.3 333.2C91.3 355.3 98.7 377.7 102 400C105.3 422.3 104.7 444.7 99.8 466.8C95 489 86 511 87.2 533.2C88.3 555.3 99.7 577.7 105.3 588.8L111 600L0 600L0 588.8C0 577.7 0 555.3 0 533.2C0 511 0 489 0 466.8C0 444.7 0 422.3 0 400C0 377.7 0 355.3 0 333.2C0 311 0 289 0 266.8C0 244.7 0 222.3 0 200C0 177.7 0 155.3 0 133.2C0 111 0 89 0 66.8C0 44.7 0 22.3 0 11.2L0 0Z" fill="#c5d0ff"></path><path d="M77 0L79 11.2C81 22.3 85 44.7 84.2 66.8C83.3 89 77.7 111 71.3 133.2C65 155.3 58 177.7 57 200C56 222.3 61 244.7 67.2 266.8C73.3 289 80.7 311 81.8 333.2C83 355.3 78 377.7 73.8 400C69.7 422.3 66.3 444.7 66.8 466.8C67.3 489 71.7 511 74.5 533.2C77.3 555.3 78.7 577.7 79.3 588.8L80 600L0 600L0 588.8C0 577.7 0 555.3 0 533.2C0 511 0 489 0 466.8C0 444.7 0 422.3 0 400C0 377.7 0 355.3 0 333.2C0 311 0 289 0 266.8C0 244.7 0 222.3 0 200C0 177.7 0 155.3 0 133.2C0 111 0 89 0 66.8C0 44.7 0 22.3 0 11.2L0 0Z" fill="#a0aefe"></path><path d="M61 0L58.3 11.2C55.7 22.3 50.3 44.7 50.2 66.8C50 89 55 111 54 133.2C53 155.3 46 177.7 44.8 200C43.7 222.3 48.3 244.7 49.8 266.8C51.3 289 49.7 311 50.7 333.2C51.7 355.3 55.3 377.7 57.2 400C59 422.3 59 444.7 57.8 466.8C56.7 489 54.3 511 53.5 533.2C52.7 555.3 53.3 577.7 53.7 588.8L54 600L0 600L0 588.8C0 577.7 0 555.3 0 533.2C0 511 0 489 0 466.8C0 444.7 0 422.3 0 400C0 377.7 0 355.3 0 333.2C0 311 0 289 0 266.8C0 244.7 0 222.3 0 200C0 177.7 0 155.3 0 133.2C0 111 0 89 0 66.8C0 44.7 0 22.3 0 11.2L0 0Z" fill="#7f8bf9"></path><path d="M25 0L24.5 11.2C24 22.3 23 44.7 24.5 66.8C26 89 30 111 32.2 133.2C34.3 155.3 34.7 177.7 34.2 200C33.7 222.3 32.3 244.7 33 266.8C33.7 289 36.3 311 38.3 333.2C40.3 355.3 41.7 377.7 40 400C38.3 422.3 33.7 444.7 30.5 466.8C27.3 489 25.7 511 27.7 533.2C29.7 555.3 35.3 577.7 38.2 588.8L41 600L0 600L0 588.8C0 577.7 0 555.3 0 533.2C0 511 0 489 0 466.8C0 444.7 0 422.3 0 400C0 377.7 0 355.3 0 333.2C0 311 0 289 0 266.8C0 244.7 0 222.3 0 200C0 177.7 0 155.3 0 133.2C0 111 0 89 0 66.8C0 44.7 0 22.3 0 11.2L0 0Z" fill="#6366f1"></path></svg>