<svg id="visual" viewBox="0 0 900 600" width="900" height="600" xmlns="http://www.w3.org/2000/svg" xmlns:xlink="http://www.w3.org/1999/xlink" version="1.1"><path d="M0 85L30 87C60 89 120 93 180 98C240 103 300 109 360 112C420 115 480 115 540 115C600 115 660 115 720 113C780 111 840 107 870 105L900 103L900 0L870 0C840 0 780 0 720 0C660 0 600 0 540 0C480 0 420 0 360 0C300 0 240 0 180 0C120 0 60 0 30 0L0 0Z" fill="#9695f9"></path><path d="M0 253L30 257C60 261 120 269 180 272C240 275 300 273 360 271C420 269 480 267 540 265C600 263 660 261 720 267C780 273 840 287 870 294L900 301L900 101L870 103C840 105 780 109 720 111C660 113 600 113 540 113C480 113 420 113 360 110C300 107 240 101 180 96C120 91 60 87 30 85L0 83Z" fill="#7576f4"></path><path d="M0 391L30 395C60 399 120 407 180 405C240 403 300 391 360 384C420 377 480 375 540 375C600 375 660 377 720 384C780 391 840 403 870 409L900 415L900 299L870 292C840 285 780 271 720 265C660 259 600 261 540 263C480 265 420 267 360 269C300 271 240 273 180 270C120 267 60 259 30 255L0 251Z" fill="#595add"></path><path d="M0 601L30 601C60 601 120 601 180 601C240 601 300 601 360 601C420 601 480 601 540 601C600 601 660 601 720 601C780 601 840 601 870 601L900 601L900 413L870 407C840 401 780 389 720 382C660 375 600 373 540 373C480 373 420 375 360 382C300 389 240 401 180 403C120 405 60 397 30 393L0 389Z" fill="#4644b7"></path></svg>